<?xml version="1.0" encoding="UTF-8" standalone="no"?>
<!-- Generator: Adobe Illustrator 19.0.0, SVG Export Plug-In . SVG Version: 6.00 Build 0)  -->

<svg
   version="1.1"
   id="Capa_1"
   x="0px"
   y="0px"
   viewBox="0 0 489.8 489.8"
   style="enable-background:new 0 0 489.8 489.8;"
   xml:space="preserve"
   sodipodi:docname="add-svgrepo-com.svg"
   inkscape:version="1.2.1 (9c6d41e410, 2022-07-14)"
   xmlns:inkscape="http://www.inkscape.org/namespaces/inkscape"
   xmlns:sodipodi="http://sodipodi.sourceforge.net/DTD/sodipodi-0.dtd"
   xmlns="http://www.w3.org/2000/svg"
   xmlns:svg="http://www.w3.org/2000/svg"><defs
   id="defs146" /><sodipodi:namedview
   id="namedview144"
   pagecolor="#505050"
   bordercolor="#eeeeee"
   borderopacity="1"
   inkscape:showpageshadow="0"
   inkscape:pageopacity="0"
   inkscape:pagecheckerboard="0"
   inkscape:deskcolor="#505050"
   showgrid="false"
   inkscape:zoom="1.0718661"
   inkscape:cx="238.8358"
   inkscape:cy="244.43352"
   inkscape:window-width="1366"
   inkscape:window-height="705"
   inkscape:window-x="-8"
   inkscape:window-y="-8"
   inkscape:window-maximized="1"
   inkscape:current-layer="Capa_1" />
<g
   id="g111"
   style="fill:#ffffff"
   inkscape:export-filename="add-pngrepo-com.png"
   inkscape:export-xdpi="96"
   inkscape:export-ydpi="96">
	<g
   id="g109"
   style="fill:#ffffff">
		<path
   d="M438.2,0H51.6C23.1,0,0,23.2,0,51.6v386.6c0,28.5,23.2,51.6,51.6,51.6h386.6c28.5,0,51.6-23.2,51.6-51.6V51.6    C489.8,23.2,466.6,0,438.2,0z M465.3,438.2c0,14.9-12.2,27.1-27.1,27.1H51.6c-14.9,0-27.1-12.2-27.1-27.1V51.6    c0-14.9,12.2-27.1,27.1-27.1h386.6c14.9,0,27.1,12.2,27.1,27.1V438.2z"
   id="path105"
   style="fill:#ffffff" />
		<path
   d="M337.4,232.7h-80.3v-80.3c0-6.8-5.5-12.3-12.3-12.3s-12.3,5.5-12.3,12.3v80.3h-80.3c-6.8,0-12.3,5.5-12.3,12.2    c0,6.8,5.5,12.3,12.3,12.3h80.3v80.3c0,6.8,5.5,12.3,12.3,12.3s12.3-5.5,12.3-12.3v-80.3h80.3c6.8,0,12.3-5.5,12.3-12.3    C349.7,238.1,344.2,232.7,337.4,232.7z"
   id="path107"
   style="fill:#ffffff" />
	</g>
</g>
<g
   id="g113">
</g>
<g
   id="g115">
</g>
<g
   id="g117">
</g>
<g
   id="g119">
</g>
<g
   id="g121">
</g>
<g
   id="g123">
</g>
<g
   id="g125">
</g>
<g
   id="g127">
</g>
<g
   id="g129">
</g>
<g
   id="g131">
</g>
<g
   id="g133">
</g>
<g
   id="g135">
</g>
<g
   id="g137">
</g>
<g
   id="g139">
</g>
<g
   id="g141">
</g>
</svg>
