<?xml version="1.0" encoding="iso-8859-1"?>
<!-- Generator: Adobe Illustrator 19.0.0, SVG Export Plug-In . SVG Version: 6.00 Build 0)  -->
<svg version="1.1" id="Layer_1" xmlns="http://www.w3.org/2000/svg" xmlns:xlink="http://www.w3.org/1999/xlink" x="0px" y="0px"
	 viewBox="0 0 512.001 512.001" style="enable-background:new 0 0 512.001 512.001;" xml:space="preserve">
<g>
	<g>
		<path d="M303.664,138.288c18.99-14.924,30.872-38.518,29.577-64.781c-1.948-39.515-33.973-71.54-73.492-73.418
			c-44.342-2.107-81.088,33.388-81.088,77.312c0,24.691,11.627,46.703,29.674,60.885c-18.61,14.621-29.674,36.886-29.674,60.885
			v60.342c0,9.423,7.638,17.061,17.06,17.061h120.556c9.422,0,17.06-7.638,17.06-17.06v-60.342
			C333.338,174.641,321.842,152.567,303.664,138.288z M238.94,242.455h-26.158v-43.282c0-6.622,1.496-12.898,4.159-18.514
			l21.999,23.267V242.455z M256,172.531l-13.517-14.262c8.68-2.862,18.132-2.935,27.034,0L256,172.531z M299.219,242.455H273.06
			v-38.529l21.999-23.267c2.662,5.617,4.159,11.893,4.159,18.514V242.455z M256,120.888c-23.867,0-43.282-19.416-43.282-43.281
			c0-23.867,19.415-43.282,43.282-43.282c23.866,0,43.282,19.415,43.282,43.282C299.282,101.471,279.867,120.888,256,120.888z"/>
	</g>
</g>
<g>
	<g>
		<path d="M437.972,417.603h-13.648v-60.278c0-9.422-7.638-17.06-17.06-17.06H273.06v-27.71c0-8.757-6.416-16.44-15.12-17.401
			c-10.29-1.135-19,6.891-19,16.953v28.158H104.736c-9.422,0-17.06,7.638-17.06,17.06v60.278H74.029
			c-9.422,0-17.06,7.638-17.06,17.06v60.278c0,9.422,7.638,17.06,17.06,17.06h60.278c9.422,0,17.06-7.638,17.06-17.06v-60.278
			c0-9.422-7.638-17.06-17.06-17.06h-12.511v-43.218H238.94v43.218h-13.648c-9.422,0-17.06,7.638-17.06,17.06v60.278
			c0,9.422,7.638,17.06,17.06,17.06h60.278c9.422,0,17.06-7.638,17.06-17.06v-60.278c0-9.422-7.638-17.06-17.06-17.06h-12.51
			v-43.218h117.144v43.218h-12.511c-9.422,0-17.06,7.638-17.06,17.06v60.278c0,9.422,7.638,17.06,17.06,17.06h60.278
			c9.422,0,17.06-7.638,17.06-17.06v-60.278C455.032,425.24,447.394,417.603,437.972,417.603z M117.247,477.881H91.088v-26.158
			h26.158V477.881z M268.511,477.881h-26.158v-26.158h26.158V477.881z M420.912,477.881h-26.158v-26.158h26.158V477.881z"/>
	</g>
</g>
<g>
</g>
<g>
</g>
<g>
</g>
<g>
</g>
<g>
</g>
<g>
</g>
<g>
</g>
<g>
</g>
<g>
</g>
<g>
</g>
<g>
</g>
<g>
</g>
<g>
</g>
<g>
</g>
<g>
</g>
</svg>
