<?xml version="1.0" encoding="iso-8859-1"?>
<!-- Generator: Adobe Illustrator 19.0.0, SVG Export Plug-In . SVG Version: 6.00 Build 0)  -->
<svg version="1.1" id="Layer_1" xmlns="http://www.w3.org/2000/svg" xmlns:xlink="http://www.w3.org/1999/xlink" x="0px" y="0px"
	 viewBox="0 0 512 512" style="enable-background:new 0 0 512 512;" xml:space="preserve">
<g>
	<g>
		<path d="M511.126,349.863l-48.76-190.107c-1.844-7.187-6.375-13.226-12.761-17.005c-6.386-3.78-13.862-4.847-21.047-3.001
			l-23.526,6.034V68.399c0-15.317-12.461-27.778-27.778-27.778H27.778C12.461,40.621,0,53.083,0,68.399V264.66
			c0,15.316,12.461,27.777,27.778,27.777h50.477l40.539,158.053c1.844,7.187,6.376,13.226,12.761,17.004
			c4.341,2.569,9.183,3.884,14.098,3.884c2.316,0,4.648-0.292,6.949-0.882l338.518-86.825
			C505.956,379.866,514.93,364.699,511.126,349.863z M27.778,272.039c-4.068,0.001-7.379-3.31-7.379-7.378V68.399
			c0-4.068,3.311-7.379,7.379-7.379h349.475c4.07,0,7.379,3.311,7.379,7.379V264.66c0,4.069-3.311,7.378-7.379,7.378H27.778z
			 M122.224,381.764l-22.911-89.326h277.94c15.317,0,27.778-12.461,27.778-27.777v-97.819l28.595-7.334
			c1.909-0.491,3.894-0.207,5.59,0.797c1.697,1.004,2.901,2.609,3.39,4.518l32.433,126.449L122.224,381.764z M131.524,418.017
			l-4.231-16.494l352.815-90.493l4.231,16.494L131.524,418.017z M486.052,363.912l-338.518,86.825
			c-1.908,0.49-3.895,0.207-5.591-0.797c-1.696-1.004-2.901-2.608-3.39-4.517l-1.961-7.647l352.815-90.493l1.961,7.646
			C492.378,358.871,489.993,362.9,486.052,363.912z"/>
	</g>
</g>
<g>
	<g>
		<path d="M350.413,106.743h-6.409c-5.633,0-10.199,4.567-10.199,10.199s4.566,10.199,10.199,10.199h6.409
			c5.633,0,10.199-4.567,10.199-10.199S356.046,106.743,350.413,106.743z"/>
	</g>
</g>
<g>
	<g>
		<path d="M306.576,106.743h-61.025c-5.633,0-10.199,4.567-10.199,10.199s4.566,10.199,10.199,10.199h61.025
			c5.633,0,10.199-4.567,10.199-10.199S312.209,106.743,306.576,106.743z"/>
	</g>
</g>
<g>
	<g>
		<path d="M350.413,157.982H245.551c-5.633,0-10.199,4.567-10.199,10.199s4.566,10.199,10.199,10.199h104.861
			c5.633,0,10.199-4.567,10.199-10.199S356.046,157.982,350.413,157.982z"/>
	</g>
</g>
<g>
	<g>
		<path d="M350.843,209.222H245.551c-5.633,0-10.199,4.567-10.199,10.199s4.566,10.199,10.199,10.199h105.292
			c5.633,0,10.199-4.567,10.199-10.199S356.476,209.222,350.843,209.222z"/>
	</g>
</g>
<g>
	<g>
		<path d="M128.179,172.176c-39.655,0-71.917,30.501-71.917,67.992c0,5.632,4.566,10.199,10.199,10.199h123.436
			c5.633,0,10.199-4.567,10.199-10.199C200.097,202.678,167.834,172.176,128.179,172.176z M77.851,229.97
			c5.068-21.358,25.709-37.394,50.328-37.394c24.619,0,45.26,16.036,50.328,37.394H77.851z"/>
	</g>
</g>
<g>
	<g>
		<path d="M127.505,81.431c-24.104,0-43.715,19.611-43.715,43.714c0,24.105,19.61,43.715,43.715,43.715s43.715-19.611,43.715-43.715
			S151.608,81.431,127.505,81.431z M127.505,148.462c-12.856,0-23.316-10.46-23.316-23.316s10.459-23.315,23.316-23.315
			s23.316,10.459,23.316,23.315C150.821,138.001,140.362,148.462,127.505,148.462z"/>
	</g>
</g>
<g>
</g>
<g>
</g>
<g>
</g>
<g>
</g>
<g>
</g>
<g>
</g>
<g>
</g>
<g>
</g>
<g>
</g>
<g>
</g>
<g>
</g>
<g>
</g>
<g>
</g>
<g>
</g>
<g>
</g>
</svg>
