<?xml version="1.0" encoding="iso-8859-1"?>
<!-- Generator: Adobe Illustrator 19.0.0, SVG Export Plug-In . SVG Version: 6.00 Build 0)  -->
<svg version="1.1" id="Layer_1" xmlns="http://www.w3.org/2000/svg" xmlns:xlink="http://www.w3.org/1999/xlink" x="0px" y="0px"
	 viewBox="0 0 512 512" style="enable-background:new 0 0 512 512;" xml:space="preserve">
<g>
	<g>
		<g>
			<path d="M315.733,375.467c0,4.71,3.814,8.533,8.533,8.533c1.63,0,10.078-0.393,25.6-7.595c15.514,7.202,23.962,7.595,25.6,7.595
				c4.642,0,8.346-3.721,8.439-8.363c0.094-4.642-3.627-8.508-8.26-8.704c-0.077,0-7.467-0.384-21.965-7.637
				c-2.398-1.195-5.231-1.195-7.637,0c-14.49,7.253-21.888,7.637-21.777,7.637C319.548,366.933,315.733,370.756,315.733,375.467z"/>
			<path d="M136.533,110.933v337.801l-2.5-2.5c-3.337-3.337-8.738-3.337-12.075,0c-3.328,3.328-3.328,8.73,0,12.066l17.067,17.058
				c0.785,0.794,1.732,1.417,2.773,1.852c1.05,0.427,2.15,0.657,3.268,0.657c1.109,0,2.21-0.23,3.26-0.657
				c1.041-0.435,1.988-1.058,2.773-1.852l17.067-17.058c3.328-3.337,3.328-8.738,0-12.066c-3.336-3.337-8.738-3.337-12.075,0
				l-2.492,2.5V119.467h295.125l-2.492,2.5c-3.336,3.328-3.336,8.73,0,12.066c1.664,1.664,3.849,2.5,6.033,2.5
				c2.176,0,4.361-0.836,6.033-2.5l17.058-17.067c0.785-0.785,1.417-1.732,1.843-2.773c0.862-2.091,0.862-4.437,0-6.528
				c-0.427-1.041-1.058-1.98-1.843-2.773L458.3,87.834c-3.336-3.337-8.738-3.337-12.066,0c-3.336,3.328-3.336,8.73,0,12.066
				l2.492,2.5H145.067C140.348,102.4,136.533,106.223,136.533,110.933z"/>
			<path d="M307.2,324.267c0,4.71,3.814,8.533,8.533,8.533c4.71,0,8.533-3.823,8.533-8.533c4.71,0,8.533-3.823,8.533-8.533
				s-3.823-8.533-8.533-8.533H307.2c-4.719,0-8.533,3.823-8.533,8.533S302.481,324.267,307.2,324.267z"/>
			<path d="M358.4,392.533h-17.067c-4.719,0-8.533,3.823-8.533,8.533c0,4.71,3.814,8.533,8.533,8.533H358.4
				c4.71,0,8.533-3.823,8.533-8.533C366.933,396.356,363.11,392.533,358.4,392.533z"/>
			<path d="M375.467,324.267c0,4.71,3.814,8.533,8.533,8.533c4.71,0,8.533-3.823,8.533-8.533c4.71,0,8.533-3.823,8.533-8.533
				s-3.823-8.533-8.533-8.533h-17.067c-4.719,0-8.533,3.823-8.533,8.533S370.748,324.267,375.467,324.267z"/>
			<path d="M401.067,452.617c-4.719,0-8.533,3.823-8.533,8.533c0,1.382-0.486,33.783-42.667,33.783
				c-41.037,0-42.624-30.686-42.667-34.133c0-4.71-3.823-8.533-8.533-8.533c-99.721,0-110.37,47.505-110.771,49.519
				c-0.913,4.557,2.005,8.917,6.545,9.924c4.557,1.041,9.062-1.903,10.155-6.409c0.068-0.282,6.281-22.903,51.405-32.111v30.276
				c0,4.71,3.814,8.533,8.533,8.533c4.71,0,8.533-3.823,8.533-8.533v-32.811c5.572-0.58,11.426-1.05,17.937-1.229
				C294.528,487.595,309.53,512,349.867,512c40.286,0,55.296-24.183,58.846-42.214c6.511,0.171,12.373,0.631,17.954,1.212v32.469
				c0,4.71,3.814,8.533,8.533,8.533c4.71,0,8.533-3.823,8.533-8.533v-29.961c45.107,9.114,51.328,31.497,51.362,31.65
				c0.819,4.045,4.378,6.844,8.363,6.844c0.555,0,1.118-0.06,1.69-0.171c4.625-0.93,7.612-5.427,6.682-10.052
				C511.42,499.772,500.77,452.617,401.067,452.617z"/>
			<path d="M469.333,51.2H128c-4.719,0-8.533,3.823-8.533,8.533s3.814,8.533,8.533,8.533h341.333c13.875,0,25.6,11.725,25.6,25.6
				v358.4c0,4.71,3.814,8.533,8.533,8.533c4.71,0,8.533-3.823,8.533-8.533v-358.4C512,70.34,492.851,51.2,469.333,51.2z"/>
			<path d="M256.239,331.426c0.802,13.858,4.156,44.689,18.261,65.835l1.818,2.773c10.743,16.341,28.706,43.699,73.549,43.699
				c44.834,0,62.797-27.358,73.54-43.699l1.826-2.773c14.097-21.146,17.451-51.977,18.253-65.835
				c10.052-3.456,17.314-13.013,17.314-24.226v-17.067h8.533c4.71,0,8.533-3.823,8.533-8.533v-34.133
				c0-1.178-0.239-2.295-0.674-3.319c-0.111-0.265-0.333-0.452-0.469-0.7c-0.393-0.717-0.785-1.434-1.348-2.005
				c-0.282-0.282-0.657-0.418-0.964-0.657c-0.563-0.427-1.092-0.896-1.741-1.169c-0.41-0.179-0.887-0.171-1.323-0.273
				c-0.649-0.162-1.271-0.41-1.963-0.41c-10.513-28.962-31.864-61.295-93.918-73.242v-3.558c0-4.71-3.823-8.533-8.533-8.533H332.8
				c-4.719,0-8.533,3.823-8.533,8.533v3.379c-51.439,9.097-81.929,43.511-93.815,73.421H230.4c-4.719,0-8.533,3.823-8.533,8.533
				c0,0.759,0.239,1.442,0.427,2.142V281.6c0,4.71,3.823,8.533,8.533,8.533h8.107V307.2
				C238.933,318.413,246.187,327.97,256.239,331.426z M443.733,307.2c0,4.702-3.831,8.533-8.533,8.533
				c-4.71,0-8.525,3.823-8.533,8.525c0,0.401-0.239,40.44-15.642,63.539l-1.886,2.867c-9.984,15.189-23.646,36.002-59.273,36.002
				c-35.635,0-49.297-20.813-59.281-36.002l-1.886-2.867c-15.403-23.1-15.633-63.138-15.633-63.539
				c-0.008-4.702-3.831-8.525-8.533-8.525c-4.71,0-8.533-3.831-8.533-8.533v-17.067h187.733V307.2z M239.36,256h33.707
				c4.71,0,8.533-3.823,8.533-8.533s-3.823-8.533-8.533-8.533h-23.953c11.426-23.305,35.942-48.111,75.153-56.047V204.8
				c0,4.71,3.814,8.533,8.533,8.533c4.71,0,8.533-3.823,8.533-8.533v-31.94v-2.193H358.4v2.193v31.94
				c0,4.71,3.814,8.533,8.533,8.533c4.71,0,8.533-3.823,8.533-8.533v-21.658c47.053,9.89,65.766,32.512,75.58,55.791h-24.38
				c-4.719,0-8.533,3.823-8.533,8.533s3.814,8.533,8.533,8.533H460.8v17.067H239.36V256z"/>
			<path d="M162.133,494.933H51.2c-18.825,0-34.133-15.317-34.133-34.133c0-18.824,15.309-34.133,34.133-34.133
				c18.816,0,34.133,15.309,34.133,34.133c0,4.71,3.814,8.533,8.533,8.533c4.71,0,8.533-3.823,8.533-8.533V51.2
				C102.4,22.963,79.428,0,51.2,0C22.963,0,0,22.963,0,51.2v409.6C0,489.028,22.963,512,51.2,512h110.933
				c4.71,0,8.533-3.823,8.533-8.533C170.667,498.756,166.844,494.933,162.133,494.933z M17.067,51.2
				c0-18.825,15.309-34.133,34.133-34.133c18.816,0,34.133,15.309,34.133,34.133v371.541C76.262,414.601,64.316,409.6,51.2,409.6
				c-13.124,0-25.062,5.001-34.133,13.141V51.2z"/>
		</g>
	</g>
</g>
<g>
</g>
<g>
</g>
<g>
</g>
<g>
</g>
<g>
</g>
<g>
</g>
<g>
</g>
<g>
</g>
<g>
</g>
<g>
</g>
<g>
</g>
<g>
</g>
<g>
</g>
<g>
</g>
<g>
</g>
</svg>
