<?xml version="1.0" encoding="iso-8859-1"?>
<!-- Generator: Adobe Illustrator 19.0.0, SVG Export Plug-In . SVG Version: 6.00 Build 0)  -->
<svg version="1.1" id="Layer_1" xmlns="http://www.w3.org/2000/svg" xmlns:xlink="http://www.w3.org/1999/xlink" x="0px" y="0px"
	 viewBox="0 0 512.011 512.011" style="enable-background:new 0 0 512.011 512.011;" xml:space="preserve">
<g>
	<g>
		<g>
			<path d="M205.645,179.137c-0.529,7.945-0.845,16.444-0.845,25.668c0,42.743,12.757,68.267,34.133,68.267
				c26.94,0,34.133-32.188,34.133-51.2c0-4.719-3.814-8.533-8.533-8.533c-4.71,0-8.533,3.814-8.533,8.533
				c0,0.341-0.734,34.133-17.067,34.133c-9.89,0-17.067-21.538-17.067-51.2c0-99.49,34.918-110.822,36.011-111.147
				c4.506-1.015,7.398-5.444,6.485-10.001c-0.922-4.617-5.393-7.62-10.044-6.69c-1.707,0.341-7.885,1.971-15.326,8.337
				c0.008-1.459,0.128-2.927,0.521-4.386c1.178-4.403,4.002-8.081,7.953-10.368c3.951-2.27,8.542-2.884,12.945-1.698
				c4.403,1.178,8.09,4.002,10.359,7.953c4.71,8.141,1.903,18.603-6.246,23.313c-4.079,2.355-5.47,7.578-3.115,11.657
				c1.579,2.739,4.446,4.267,7.398,4.267c1.451,0,2.918-0.367,4.258-1.143c16.29-9.421,21.888-30.336,12.493-46.626
				c-4.565-7.902-11.921-13.542-20.727-15.906c-8.832-2.364-18.014-1.143-25.899,3.405c-7.902,4.565-13.551,11.921-15.906,20.736
				c-2.21,8.243-1.169,16.794,2.85,24.593c-7.322,11.913-14.165,29.653-17.971,56.03c-12.783-15.3-20.173-34.782-20.173-54.724
				c0-47.053,38.281-85.333,85.333-85.333c47.044,0,85.333,38.281,85.333,85.333s-38.289,85.333-85.333,85.333
				c-9.276,0-18.381-1.476-27.085-4.378c-4.463-1.485-9.293,0.913-10.795,5.385c-1.493,4.471,0.922,9.301,5.393,10.795
				c10.445,3.49,21.376,5.265,32.486,5.265c56.465,0,102.4-45.943,102.4-102.4c0-56.465-45.935-102.4-102.4-102.4
				c-56.465,0-102.4,45.935-102.4,102.4C170.667,131.504,183.731,159.775,205.645,179.137z"/>
			<path d="M110.933,324.272H179.2c9.95,0,26.88,12.698,41.813,23.893c18.722,14.046,36.403,27.307,52.053,27.307h51.2
				c12.954,0,19.396,5.879,19.567,6.033c1.664,1.664,3.849,2.5,6.033,2.5c2.185,0,4.361-0.836,6.033-2.5
				c3.328-3.337,3.328-8.738,0-12.066c-1.126-1.135-11.614-11.034-31.633-11.034h-51.2c-9.958,0-26.88-12.698-41.813-23.893
				c-18.722-14.046-36.412-27.307-52.053-27.307h-68.267c-4.71,0-8.533,3.814-8.533,8.533
				C102.4,320.449,106.223,324.272,110.933,324.272z"/>
			<path d="M374.673,173.412l86.127,86.127v30.601h-30.601l-3.533-3.533v-22.067c0-4.719-3.814-8.533-8.533-8.533H409.6v-8.533
				c0-4.719-3.814-8.533-8.533-8.533h-22.059l-3.541-3.541v-22.059c0-4.719-3.814-8.533-8.533-8.533h-22.067l-0.828-0.828
				c-3.328-3.337-8.73-3.337-12.066,0s-3.337,8.73,0,12.066l3.328,3.328c1.596,1.596,3.763,2.5,6.033,2.5H358.4v17.05
				c0,2.261,0.896,4.429,2.492,6.033l8.533,8.542c1.596,1.604,3.772,2.509,6.042,2.509h17.067v8.533c0,4.71,3.814,8.533,8.533,8.533
				h8.533v17.067c0,2.261,0.896,4.429,2.5,6.033l8.533,8.533c1.596,1.596,3.763,2.5,6.033,2.5h42.667
				c4.719,0,8.533-3.823,8.533-8.533v-42.667c0-2.261-0.905-4.437-2.5-6.033l-88.627-88.627c-3.337-3.336-8.73-3.336-12.066,0
				C371.337,164.682,371.337,170.075,374.673,173.412z"/>
			<path d="M42.667,456.539c0-7.057-5.743-12.8-12.8-12.8s-12.8,5.743-12.8,12.8s5.743,12.8,12.8,12.8
				S42.667,463.596,42.667,456.539z"/>
			<path d="M59.733,273.072h-51.2c-4.71,0-8.533,3.814-8.533,8.533c0,4.71,3.823,8.533,8.533,8.533h51.2
				c4.702,0,8.533,3.823,8.533,8.533v187.733c0,4.702-3.831,8.533-8.533,8.533h-51.2c-4.71,0-8.533,3.814-8.533,8.533
				c0,4.71,3.823,8.533,8.533,8.533h51.2c14.114,0,25.6-11.486,25.6-25.6V298.672C85.333,284.55,73.847,273.072,59.733,273.072z"/>
			<path d="M507.426,358.406c-9.412-16.307-30.362-21.888-46.097-12.774l-98.21,47.804c-15.275,7.637-30.677,7.637-64.452,7.637
				c-33.015,0-83.43-8.337-83.934-8.422c-4.685-0.777-9.045,2.372-9.822,7.014c-0.768,4.651,2.372,9.045,7.014,9.822
				c2.125,0.358,52.301,8.653,86.741,8.653c35.43,0,53.214,0,71.996-9.395l98.671-48.051c3.942-2.278,8.542-2.884,12.945-1.707
				s8.09,4.002,10.359,7.953c2.287,3.951,2.893,8.55,1.707,12.954c-1.169,4.395-3.994,8.081-8.192,10.505l-115.371,71.808
				c-0.239,0.154-24.858,15.667-80.648,15.667c-48.375,0-123.11-41.182-124.186-41.771c-0.768-0.384-19.277-9.429-55.014-9.429
				c-4.71,0-8.533,3.814-8.533,8.533c0,4.71,3.823,8.533,8.533,8.533c31.036,0,47.027,7.458,47.053,7.458
				c3.226,1.792,79.343,43.742,132.147,43.742c61.602,0,88.934-17.749,89.839-18.355l114.961-71.552
				c7.893-4.557,13.542-11.921,15.898-20.727C513.195,375.498,511.983,366.299,507.426,358.406z"/>
		</g>
	</g>
</g>
<g>
</g>
<g>
</g>
<g>
</g>
<g>
</g>
<g>
</g>
<g>
</g>
<g>
</g>
<g>
</g>
<g>
</g>
<g>
</g>
<g>
</g>
<g>
</g>
<g>
</g>
<g>
</g>
<g>
</g>
</svg>
