<?xml version="1.0" encoding="iso-8859-1"?>
<!-- Generator: Adobe Illustrator 19.0.0, SVG Export Plug-In . SVG Version: 6.00 Build 0)  -->
<svg version="1.1" id="Layer_1" xmlns="http://www.w3.org/2000/svg" xmlns:xlink="http://www.w3.org/1999/xlink" x="0px" y="0px"
	 viewBox="0 0 484.185 484.185" style="enable-background:new 0 0 484.185 484.185;" xml:space="preserve">
<g>
	<g>
		<g>
			<path d="M429.255,0v149.74h-39.904V69.878H239.61v-39.93H84.854V149.74H49.94V0H0.001v484.185h49.938v-89.844h379.315v89.844
				h54.931V0H429.255z M15.001,469.185V15h19.938v454.185H15.001z M239.61,84.878h134.74v64.861H239.61V84.878z M149.766,44.948
				h24.931v44.896h-24.931V44.948z M99.854,44.948h34.913v59.896h54.931V44.948h34.913V149.74H99.854V44.948z M429.255,379.341
				H49.94v-14.948h379.315V379.341z M109.836,349.393v-64.861h134.74v64.861H109.836z M349.419,304.497v-59.896h34.913v104.792
				H259.576V244.601h34.913v59.896H349.419z M309.49,289.497v-44.896h24.931v44.896H309.49z M429.255,349.393h-29.922V229.601
				H244.576v39.931H94.836v79.861H49.94V194.688h379.315V349.393z M429.255,179.688H49.94V164.74h379.315V179.688z M469.185,469.185
				h-24.931V15h24.931V469.185z"/>
			<rect x="326.945" y="109.809" width="29.948" height="15"/>
			<rect x="267.049" y="109.809" width="49.913" height="15"/>
			<rect x="197.17" y="309.462" width="29.948" height="15"/>
			<rect x="137.276" y="309.462" width="49.913" height="15"/>
		</g>
	</g>
</g>
<g>
</g>
<g>
</g>
<g>
</g>
<g>
</g>
<g>
</g>
<g>
</g>
<g>
</g>
<g>
</g>
<g>
</g>
<g>
</g>
<g>
</g>
<g>
</g>
<g>
</g>
<g>
</g>
<g>
</g>
</svg>
